<?xml version="1.0" encoding="UTF-8"?>
<svg version="1.1" xmlns="http://www.w3.org/2000/svg" width="200" height="200">
<path d="M0 0 C66 0 132 0 200 0 C200 66 200 132 200 200 C134 200 68 200 0 200 C0 134 0 68 0 0 Z " fill="#F4F5F4" transform="translate(0,0)"/>
<path d="M0 0 C14.52 0 29.04 0 44 0 C42.61127442 4.16617674 41.21147571 7.94126588 39.41796875 11.91015625 C38.90451904 13.05049316 38.39106934 14.19083008 37.86206055 15.36572266 C37.58953461 15.96733215 37.31700867 16.56894165 37.03622437 17.18878174 C36.17092757 19.09908675 35.30927094 21.01099776 34.44848633 22.92333984 C32.93692572 26.28018728 31.42248789 29.63572747 29.90722656 32.99090576 C27.60015803 38.10001333 25.29667082 43.21071888 22.99819946 48.32369995 C22.22297546 50.04617676 21.44492902 51.76738246 20.66674805 53.48852539 C16.26999109 63.26251826 12.16344305 73.11182277 8 83 C-6.52 83 -21.04 83 -36 83 C-34.03289721 77.09869164 -32.07373853 71.65114119 -29.4453125 66.08203125 C-28.93804626 64.99025322 -28.93804626 64.99025322 -28.42053223 63.87641907 C-27.69867742 62.32292685 -26.97489946 60.77032699 -26.24932861 59.21856689 C-24.33111544 55.11358445 -22.42991661 51.00077194 -20.53125 46.88671875 C-20.14852936 46.05744873 -19.76580872 45.22817871 -19.37149048 44.3737793 C-15.67563028 36.33978721 -12.12199341 28.24723585 -8.625 20.125 C-8.35673401 19.5021109 -8.08846802 18.8792218 -7.81207275 18.23745728 C-6.20169034 14.4943439 -4.59978135 10.7476531 -3 7 C-2.01 4.69 -1.02 2.38 0 0 Z " fill="#EE4D30" transform="translate(96,59)"/>
<path d="M0 0 C0.66 0.33 1.32 0.66 2 1 C1.67201416 1.74161377 1.34402832 2.48322754 1.00610352 3.24731445 C-0.47649675 6.60175997 -1.9570222 9.95711724 -3.4375 13.3125 C-3.95376953 14.47974609 -4.47003906 15.64699219 -5.00195312 16.84960938 C-5.49501953 17.96787109 -5.98808594 19.08613281 -6.49609375 20.23828125 C-6.95169678 21.26993408 -7.4072998 22.30158691 -7.87670898 23.36450195 C-9.05565511 26.03186459 -9.05565511 26.03186459 -10 29 C-24.52 29 -39.04 29 -54 29 C-53.67 28.34 -53.34 27.68 -53 27 C-41.45 27.33 -29.9 27.66 -18 28 C-17.67 26.35 -17.34 24.7 -17 23 C-16.34 23 -15.68 23 -15 23 C-14.9175 22.236875 -14.835 21.47375 -14.75 20.6875 C-13.85384206 17.47626739 -12.78388975 16.70625501 -10 15 C-9.34 15.33 -8.68 15.66 -8 16 C-8 15.34 -8 14.68 -8 14 C-7.34 14 -6.68 14 -6 14 C-5.7525 13.175 -5.505 12.35 -5.25 11.5 C-3.81295189 7.47626529 -1.97645485 3.78020976 0 0 Z " fill="#E35E3D" transform="translate(114,113)"/>
<path d="M0 0 C14.52 0 29.04 0 44 0 C41.75 6.75 41.75 6.75 39 10 C39.33 7.69 39.66 5.38 40 3 C20.2 2.505 20.2 2.505 0 2 C0 1.34 0 0.68 0 0 Z " fill="#D86258" transform="translate(96,59)"/>
<path d="M0 0 C0.33 0.66 0.66 1.32 1 2 C0.16059029 4.24589069 -0.739244 6.36895168 -1.74609375 8.5390625 C-2.03605728 9.17991791 -2.32602081 9.82077332 -2.62477112 10.48104858 C-3.55500896 12.53246248 -4.49609254 14.57869135 -5.4375 16.625 C-6.06907856 18.01269374 -6.69994728 19.40071078 -7.33007812 20.7890625 C-8.87849883 24.19651814 -10.43666616 27.59936225 -12 31 C-13.85516803 24.92958252 -10.49273509 19.55484142 -8 14 C-6.71927629 11.9659094 -5.39712274 9.95597184 -4 8 C-2.91781694 5.69615251 -1.96958583 3.35470843 -1 1 C-0.67 0.67 -0.34 0.34 0 0 Z " fill="#FEE4DF" transform="translate(94,62)"/>
<path d="M0 0 C1.14357298 3.9632224 0.97357118 6.9559351 0 11 C-2.0625 12.4375 -2.0625 12.4375 -4 13 C-3.938125 13.7425 -3.87625 14.485 -3.8125 15.25 C-4.03239994 18.47519908 -4.78252188 19.69723426 -7 22 C-7.66 22 -8.32 22 -9 22 C-6.66062389 14.33204498 -3.45231194 7.22862726 0 0 Z " fill="#FBE1D9" transform="translate(125,92)"/>
<path d="M0 0 C1.6852084 4.07679159 0.16939007 6.83075593 -1.4375 10.75 C-1.91058594 11.92046875 -2.38367188 13.0909375 -2.87109375 14.296875 C-3.24363281 15.18890625 -3.61617188 16.0809375 -4 17 C-4.66 17 -5.32 17 -6 17 C-6 18.32 -6 19.64 -6 21 C-6.66 21 -7.32 21 -8 21 C-8 21.99 -8 22.98 -8 24 C-8.66 24 -9.32 24 -10 24 C-7.49415892 15.59806226 -3.78974143 7.88058561 0 0 Z " fill="#DD6A48" transform="translate(73,111)"/>
<path d="M0 0 C1.1875 1.625 1.1875 1.625 2 4 C0.625 7.25 0.625 7.25 -1 10 C-1.33 9.01 -1.66 8.02 -2 7 C-2.66 7 -3.32 7 -4 7 C-3.67 5.35 -3.34 3.7 -3 2 C-2.34 2 -1.68 2 -1 2 C-0.67 1.34 -0.34 0.68 0 0 Z " fill="#FBE8E8" transform="translate(61,132)"/>
<path d="M0 0 C0.33 0 0.66 0 1 0 C1.56561146 5.65611463 -0.28608722 9.22642128 -3 14 C-3.66 14 -4.32 14 -5 14 C-3.45730076 9.27934033 -1.92205381 4.58335908 0 0 Z " fill="#FCDFD4" transform="translate(131,78)"/>
<path d="M0 0 C1.40309836 3.18885991 0.90389952 4.25335581 -0.375 7.625 C-1.23999119 9.42152016 -2.10829439 11.21658879 -3 13 C-3.66 13 -4.32 13 -5 13 C-3.58192622 8.52761347 -1.88695626 4.28853694 0 0 Z " fill="#DC6551" transform="translate(89,75)"/>
<path d="M0 0 C0.66 0 1.32 0 2 0 C1.01 2.97 0.02 5.94 -1 9 C-1.33 9 -1.66 9 -2 9 C-2 6.69 -2 4.38 -2 2 C-1.34 2 -0.68 2 0 2 C0 1.34 0 0.68 0 0 Z " fill="#FCE2DA" transform="translate(77,98)"/>
<path d="M0 0 C0.91004613 3.07140568 1.33694826 5.79899154 1 9 C0.01 9.66 -0.98 10.32 -2 11 C-1.85892253 9.54119891 -1.71197585 8.08296449 -1.5625 6.625 C-1.48128906 5.81289062 -1.40007812 5.00078125 -1.31640625 4.1640625 C-1 2 -1 2 0 0 Z " fill="#E4523D" transform="translate(91,71)"/>
</svg>
